<svg width="502" height="280" viewBox="0 0 502 280" fill="none" xmlns="http://www.w3.org/2000/svg">
<g clip-path="url(#clip0_100_8)">
<path d="M13.48 28.12C12.872 28.12 12.34 28 11.884 27.76C11.436 27.52 11.036 27.172 10.684 26.716L11.44 25.96C11.696 26.32 11.992 26.604 12.328 26.812C12.664 27.02 13.06 27.124 13.516 27.124C14.004 27.124 14.396 27.012 14.692 26.788C14.996 26.564 15.148 26.252 15.148 25.852C15.148 25.54 15.076 25.288 14.932 25.096C14.788 24.904 14.596 24.748 14.356 24.628C14.116 24.5 13.852 24.388 13.564 24.292C13.276 24.188 12.988 24.08 12.7 23.968C12.42 23.848 12.16 23.704 11.92 23.536C11.68 23.36 11.488 23.132 11.344 22.852C11.2 22.572 11.128 22.22 11.128 21.796C11.128 21.324 11.24 20.924 11.464 20.596C11.696 20.26 12.008 20.004 12.4 19.828C12.792 19.644 13.232 19.552 13.72 19.552C14.224 19.552 14.684 19.66 15.1 19.876C15.516 20.084 15.86 20.36 16.132 20.704L15.376 21.46C15.128 21.172 14.868 20.948 14.596 20.788C14.324 20.628 14.024 20.548 13.696 20.548C13.232 20.548 12.868 20.648 12.604 20.848C12.34 21.048 12.208 21.34 12.208 21.724C12.208 22.004 12.28 22.232 12.424 22.408C12.576 22.576 12.772 22.72 13.012 22.84C13.26 22.96 13.524 23.072 13.804 23.176C14.092 23.272 14.38 23.38 14.668 23.5C14.964 23.62 15.232 23.772 15.472 23.956C15.712 24.14 15.904 24.38 16.048 24.676C16.2 24.964 16.276 25.328 16.276 25.768C16.276 26.504 16.024 27.08 15.52 27.496C15.016 27.912 14.336 28.12 13.48 28.12ZM13.312 29.2V18.472H14.104V29.2H13.312ZM20.0307 28.12C19.4627 28.12 18.9547 28.02 18.5067 27.82C18.0667 27.612 17.6947 27.312 17.3907 26.92L18.1587 26.152C18.3427 26.432 18.5947 26.656 18.9147 26.824C19.2427 26.984 19.6067 27.064 20.0067 27.064C20.3827 27.064 20.7107 26.992 20.9907 26.848C21.2787 26.704 21.5027 26.504 21.6627 26.248C21.8307 25.984 21.9147 25.672 21.9147 25.312C21.9147 24.944 21.8347 24.632 21.6747 24.376C21.5147 24.12 21.2987 23.928 21.0267 23.8C20.7627 23.664 20.4707 23.596 20.1507 23.596C19.8227 23.596 19.5227 23.636 19.2507 23.716C18.9867 23.796 18.7347 23.932 18.4947 24.124L18.5067 23.404C18.6427 23.236 18.7987 23.1 18.9747 22.996C19.1507 22.892 19.3507 22.812 19.5747 22.756C19.7987 22.7 20.0587 22.672 20.3547 22.672C20.9307 22.672 21.4187 22.792 21.8187 23.032C22.2187 23.272 22.5227 23.596 22.7307 24.004C22.9467 24.412 23.0547 24.868 23.0547 25.372C23.0547 25.9 22.9227 26.372 22.6587 26.788C22.4027 27.204 22.0467 27.532 21.5907 27.772C21.1347 28.004 20.6147 28.12 20.0307 28.12ZM18.4947 24.124L17.8827 23.512L18.2547 19.672H19.2867L18.8667 23.62L18.4947 24.124ZM18.4827 20.68L18.2547 19.672H22.6347V20.68H18.4827ZM27.5069 28.12C26.8829 28.12 26.3109 27.944 25.7909 27.592C25.2789 27.24 24.8709 26.744 24.5669 26.104C24.2629 25.456 24.1109 24.696 24.1109 23.824C24.1109 22.952 24.2589 22.196 24.5549 21.556C24.8589 20.916 25.2669 20.424 25.7789 20.08C26.2909 19.728 26.8549 19.552 27.4709 19.552C28.1029 19.552 28.6749 19.728 29.1869 20.08C29.6989 20.424 30.1029 20.916 30.3989 21.556C30.7029 22.196 30.8549 22.956 30.8549 23.836C30.8549 24.708 30.7029 25.468 30.3989 26.116C30.1029 26.756 29.6989 27.252 29.1869 27.604C28.6829 27.948 28.1229 28.12 27.5069 28.12ZM27.4829 27.052C27.9229 27.052 28.3069 26.932 28.6349 26.692C28.9709 26.444 29.2349 26.08 29.4269 25.6C29.6189 25.12 29.7149 24.528 29.7149 23.824C29.7149 23.12 29.6189 22.532 29.4269 22.06C29.2349 21.58 28.9709 21.22 28.6349 20.98C28.2989 20.732 27.9109 20.608 27.4709 20.608C27.0389 20.608 26.6549 20.732 26.3189 20.98C25.9829 21.22 25.7189 21.58 25.5269 22.06C25.3429 22.532 25.2509 23.12 25.2509 23.824C25.2509 24.528 25.3429 25.12 25.5269 25.6C25.7189 26.08 25.9829 26.444 26.3189 26.692C26.6549 26.932 27.0429 27.052 27.4829 27.052ZM35.3819 28.12C34.7579 28.12 34.1859 27.944 33.6659 27.592C33.1539 27.24 32.7459 26.744 32.4419 26.104C32.1379 25.456 31.9859 24.696 31.9859 23.824C31.9859 22.952 32.1339 22.196 32.4299 21.556C32.7339 20.916 33.1419 20.424 33.6539 20.08C34.1659 19.728 34.7299 19.552 35.3459 19.552C35.9779 19.552 36.5499 19.728 37.0619 20.08C37.5739 20.424 37.9779 20.916 38.2739 21.556C38.5779 22.196 38.7299 22.956 38.7299 23.836C38.7299 24.708 38.5779 25.468 38.2739 26.116C37.9779 26.756 37.5739 27.252 37.0619 27.604C36.5579 27.948 35.9979 28.12 35.3819 28.12ZM35.3579 27.052C35.7979 27.052 36.1819 26.932 36.5099 26.692C36.8459 26.444 37.1099 26.08 37.3019 25.6C37.4939 25.12 37.5899 24.528 37.5899 23.824C37.5899 23.12 37.4939 22.532 37.3019 22.06C37.1099 21.58 36.8459 21.22 36.5099 20.98C36.1739 20.732 35.7859 20.608 35.3459 20.608C34.9139 20.608 34.5299 20.732 34.1939 20.98C33.8579 21.22 33.5939 21.58 33.4019 22.06C33.2179 22.532 33.1259 23.12 33.1259 23.824C33.1259 24.528 33.2179 25.12 33.4019 25.6C33.5939 26.08 33.8579 26.444 34.1939 26.692C34.5299 26.932 34.9179 27.052 35.3579 27.052Z" fill="white" fill-opacity="0.5"/>
<line x1="46" y1="23" x2="492" y2="23" stroke="white" stroke-opacity="0.02"/>
<path d="M13.48 74.72C12.872 74.72 12.34 74.6 11.884 74.36C11.436 74.12 11.036 73.772 10.684 73.316L11.44 72.56C11.696 72.92 11.992 73.204 12.328 73.412C12.664 73.62 13.06 73.724 13.516 73.724C14.004 73.724 14.396 73.612 14.692 73.388C14.996 73.164 15.148 72.852 15.148 72.452C15.148 72.14 15.076 71.888 14.932 71.696C14.788 71.504 14.596 71.348 14.356 71.228C14.116 71.1 13.852 70.988 13.564 70.892C13.276 70.788 12.988 70.68 12.7 70.568C12.42 70.448 12.16 70.304 11.92 70.136C11.68 69.96 11.488 69.732 11.344 69.452C11.2 69.172 11.128 68.82 11.128 68.396C11.128 67.924 11.24 67.524 11.464 67.196C11.696 66.86 12.008 66.604 12.4 66.428C12.792 66.244 13.232 66.152 13.72 66.152C14.224 66.152 14.684 66.26 15.1 66.476C15.516 66.684 15.86 66.96 16.132 67.304L15.376 68.06C15.128 67.772 14.868 67.548 14.596 67.388C14.324 67.228 14.024 67.148 13.696 67.148C13.232 67.148 12.868 67.248 12.604 67.448C12.34 67.648 12.208 67.94 12.208 68.324C12.208 68.604 12.28 68.832 12.424 69.008C12.576 69.176 12.772 69.32 13.012 69.44C13.26 69.56 13.524 69.672 13.804 69.776C14.092 69.872 14.38 69.98 14.668 70.1C14.964 70.22 15.232 70.372 15.472 70.556C15.712 70.74 15.904 70.98 16.048 71.276C16.2 71.564 16.276 71.928 16.276 72.368C16.276 73.104 16.024 73.68 15.52 74.096C15.016 74.512 14.336 74.72 13.48 74.72ZM13.312 75.8V65.072H14.104V75.8H13.312ZM17.4507 71.732L20.4867 66.272H21.7587L18.6627 71.732H17.4507ZM17.4507 72.428V71.732L17.9307 71.42H23.8347V72.428H17.4507ZM21.5187 74.6V69.092H22.6347V74.6H21.5187ZM28.1866 74.72C27.5626 74.72 26.9906 74.544 26.4706 74.192C25.9586 73.84 25.5506 73.344 25.2466 72.704C24.9426 72.056 24.7906 71.296 24.7906 70.424C24.7906 69.552 24.9386 68.796 25.2346 68.156C25.5386 67.516 25.9466 67.024 26.4586 66.68C26.9706 66.328 27.5346 66.152 28.1506 66.152C28.7826 66.152 29.3546 66.328 29.8666 66.68C30.3786 67.024 30.7826 67.516 31.0786 68.156C31.3826 68.796 31.5346 69.556 31.5346 70.436C31.5346 71.308 31.3826 72.068 31.0786 72.716C30.7826 73.356 30.3786 73.852 29.8666 74.204C29.3626 74.548 28.8026 74.72 28.1866 74.72ZM28.1626 73.652C28.6026 73.652 28.9866 73.532 29.3146 73.292C29.6506 73.044 29.9146 72.68 30.1066 72.2C30.2986 71.72 30.3946 71.128 30.3946 70.424C30.3946 69.72 30.2986 69.132 30.1066 68.66C29.9146 68.18 29.6506 67.82 29.3146 67.58C28.9786 67.332 28.5906 67.208 28.1506 67.208C27.7186 67.208 27.3346 67.332 26.9986 67.58C26.6626 67.82 26.3986 68.18 26.2066 68.66C26.0226 69.132 25.9306 69.72 25.9306 70.424C25.9306 71.128 26.0226 71.72 26.2066 72.2C26.3986 72.68 26.6626 73.044 26.9986 73.292C27.3346 73.532 27.7226 73.652 28.1626 73.652ZM36.0616 74.72C35.4376 74.72 34.8656 74.544 34.3456 74.192C33.8336 73.84 33.4256 73.344 33.1216 72.704C32.8176 72.056 32.6656 71.296 32.6656 70.424C32.6656 69.552 32.8136 68.796 33.1096 68.156C33.4136 67.516 33.8216 67.024 34.3336 66.68C34.8456 66.328 35.4096 66.152 36.0256 66.152C36.6576 66.152 37.2296 66.328 37.7416 66.68C38.2536 67.024 38.6576 67.516 38.9536 68.156C39.2576 68.796 39.4096 69.556 39.4096 70.436C39.4096 71.308 39.2576 72.068 38.9536 72.716C38.6576 73.356 38.2536 73.852 37.7416 74.204C37.2376 74.548 36.6776 74.72 36.0616 74.72ZM36.0376 73.652C36.4776 73.652 36.8616 73.532 37.1896 73.292C37.5256 73.044 37.7896 72.68 37.9816 72.2C38.1736 71.72 38.2696 71.128 38.2696 70.424C38.2696 69.72 38.1736 69.132 37.9816 68.66C37.7896 68.18 37.5256 67.82 37.1896 67.58C36.8536 67.332 36.4656 67.208 36.0256 67.208C35.5936 67.208 35.2096 67.332 34.8736 67.58C34.5376 67.82 34.2736 68.18 34.0816 68.66C33.8976 69.132 33.8056 69.72 33.8056 70.424C33.8056 71.128 33.8976 71.72 34.0816 72.2C34.2736 72.68 34.5376 73.044 34.8736 73.292C35.2096 73.532 35.5976 73.652 36.0376 73.652Z" fill="white" fill-opacity="0.5"/>
<line x1="46" y1="69.6" x2="492" y2="69.6" stroke="white" stroke-opacity="0.02"/>
<path d="M13.48 121.32C12.872 121.32 12.34 121.2 11.884 120.96C11.436 120.72 11.036 120.372 10.684 119.916L11.44 119.16C11.696 119.52 11.992 119.804 12.328 120.012C12.664 120.22 13.06 120.324 13.516 120.324C14.004 120.324 14.396 120.212 14.692 119.988C14.996 119.764 15.148 119.452 15.148 119.052C15.148 118.74 15.076 118.488 14.932 118.296C14.788 118.104 14.596 117.948 14.356 117.828C14.116 117.7 13.852 117.588 13.564 117.492C13.276 117.388 12.988 117.28 12.7 117.168C12.42 117.048 12.16 116.904 11.92 116.736C11.68 116.56 11.488 116.332 11.344 116.052C11.2 115.772 11.128 115.42 11.128 114.996C11.128 114.524 11.24 114.124 11.464 113.796C11.696 113.46 12.008 113.204 12.4 113.028C12.792 112.844 13.232 112.752 13.72 112.752C14.224 112.752 14.684 112.86 15.1 113.076C15.516 113.284 15.86 113.56 16.132 113.904L15.376 114.66C15.128 114.372 14.868 114.148 14.596 113.988C14.324 113.828 14.024 113.748 13.696 113.748C13.232 113.748 12.868 113.848 12.604 114.048C12.34 114.248 12.208 114.54 12.208 114.924C12.208 115.204 12.28 115.432 12.424 115.608C12.576 115.776 12.772 115.92 13.012 116.04C13.26 116.16 13.524 116.272 13.804 116.376C14.092 116.472 14.38 116.58 14.668 116.7C14.964 116.82 15.232 116.972 15.472 117.156C15.712 117.34 15.904 117.58 16.048 117.876C16.2 118.164 16.276 118.528 16.276 118.968C16.276 119.704 16.024 120.28 15.52 120.696C15.016 121.112 14.336 121.32 13.48 121.32ZM13.312 122.4V111.672H14.104V122.4H13.312ZM20.0187 121.32C19.4747 121.32 18.9787 121.22 18.5307 121.02C18.0907 120.812 17.7187 120.512 17.4147 120.12L18.1827 119.352C18.3667 119.632 18.6187 119.856 18.9387 120.024C19.2587 120.184 19.6147 120.264 20.0067 120.264C20.3747 120.264 20.6907 120.196 20.9547 120.06C21.2267 119.916 21.4387 119.716 21.5907 119.46C21.7507 119.204 21.8307 118.908 21.8307 118.572C21.8307 118.228 21.7507 117.932 21.5907 117.684C21.4387 117.428 21.2227 117.232 20.9427 117.096C20.6627 116.96 20.3307 116.892 19.9467 116.892C19.8027 116.892 19.6587 116.904 19.5147 116.928C19.3707 116.944 19.2307 116.972 19.0947 117.012L19.5747 116.364C19.7267 116.292 19.8907 116.236 20.0667 116.196C20.2427 116.156 20.4187 116.136 20.5947 116.136C21.0427 116.136 21.4427 116.24 21.7947 116.448C22.1547 116.656 22.4387 116.948 22.6467 117.324C22.8627 117.7 22.9707 118.136 22.9707 118.632C22.9707 119.16 22.8427 119.628 22.5867 120.036C22.3387 120.436 21.9947 120.752 21.5547 120.984C21.1147 121.208 20.6027 121.32 20.0187 121.32ZM19.0947 117.012V116.328L21.5307 113.556L22.8747 113.544L20.3667 116.388L19.0947 117.012ZM17.8107 113.88V112.872H22.8747V113.544L21.8907 113.88H17.8107ZM27.4717 121.32C26.8477 121.32 26.2757 121.144 25.7557 120.792C25.2437 120.44 24.8357 119.944 24.5317 119.304C24.2277 118.656 24.0757 117.896 24.0757 117.024C24.0757 116.152 24.2237 115.396 24.5197 114.756C24.8237 114.116 25.2317 113.624 25.7437 113.28C26.2557 112.928 26.8197 112.752 27.4357 112.752C28.0677 112.752 28.6397 112.928 29.1517 113.28C29.6637 113.624 30.0677 114.116 30.3637 114.756C30.6677 115.396 30.8197 116.156 30.8197 117.036C30.8197 117.908 30.6677 118.668 30.3637 119.316C30.0677 119.956 29.6637 120.452 29.1517 120.804C28.6477 121.148 28.0877 121.32 27.4717 121.32ZM27.4477 120.252C27.8877 120.252 28.2717 120.132 28.5997 119.892C28.9357 119.644 29.1997 119.28 29.3917 118.8C29.5837 118.32 29.6797 117.728 29.6797 117.024C29.6797 116.32 29.5837 115.732 29.3917 115.26C29.1997 114.78 28.9357 114.42 28.5997 114.18C28.2637 113.932 27.8757 113.808 27.4357 113.808C27.0037 113.808 26.6197 113.932 26.2837 114.18C25.9477 114.42 25.6837 114.78 25.4917 115.26C25.3077 115.732 25.2157 116.32 25.2157 117.024C25.2157 117.728 25.3077 118.32 25.4917 118.8C25.6837 119.28 25.9477 119.644 26.2837 119.892C26.6197 120.132 27.0077 120.252 27.4477 120.252ZM35.3467 121.32C34.7227 121.32 34.1507 121.144 33.6307 120.792C33.1187 120.44 32.7107 119.944 32.4067 119.304C32.1027 118.656 31.9507 117.896 31.9507 117.024C31.9507 116.152 32.0987 115.396 32.3947 114.756C32.6987 114.116 33.1067 113.624 33.6187 113.28C34.1307 112.928 34.6947 112.752 35.3107 112.752C35.9427 112.752 36.5147 112.928 37.0267 113.28C37.5387 113.624 37.9427 114.116 38.2387 114.756C38.5427 115.396 38.6947 116.156 38.6947 117.036C38.6947 117.908 38.5427 118.668 38.2387 119.316C37.9427 119.956 37.5387 120.452 37.0267 120.804C36.5227 121.148 35.9627 121.32 35.3467 121.32ZM35.3227 120.252C35.7627 120.252 36.1467 120.132 36.4747 119.892C36.8107 119.644 37.0747 119.28 37.2667 118.8C37.4587 118.32 37.5547 117.728 37.5547 117.024C37.5547 116.32 37.4587 115.732 37.2667 115.26C37.0747 114.78 36.8107 114.42 36.4747 114.18C36.1387 113.932 35.7507 113.808 35.3107 113.808C34.8787 113.808 34.4947 113.932 34.1587 114.18C33.8227 114.42 33.5587 114.78 33.3667 115.26C33.1827 115.732 33.0907 116.32 33.0907 117.024C33.0907 117.728 33.1827 118.32 33.3667 118.8C33.5587 119.28 33.8227 119.644 34.1587 119.892C34.4947 120.132 34.8827 120.252 35.3227 120.252Z" fill="white" fill-opacity="0.5"/>
<line x1="46" y1="116.2" x2="492" y2="116.2" stroke="white" stroke-opacity="0.02"/>
<path d="M13.48 167.92C12.872 167.92 12.34 167.8 11.884 167.56C11.436 167.32 11.036 166.972 10.684 166.516L11.44 165.76C11.696 166.12 11.992 166.404 12.328 166.612C12.664 166.82 13.06 166.924 13.516 166.924C14.004 166.924 14.396 166.812 14.692 166.588C14.996 166.364 15.148 166.052 15.148 165.652C15.148 165.34 15.076 165.088 14.932 164.896C14.788 164.704 14.596 164.548 14.356 164.428C14.116 164.3 13.852 164.188 13.564 164.092C13.276 163.988 12.988 163.88 12.7 163.768C12.42 163.648 12.16 163.504 11.92 163.336C11.68 163.16 11.488 162.932 11.344 162.652C11.2 162.372 11.128 162.02 11.128 161.596C11.128 161.124 11.24 160.724 11.464 160.396C11.696 160.06 12.008 159.804 12.4 159.628C12.792 159.444 13.232 159.352 13.72 159.352C14.224 159.352 14.684 159.46 15.1 159.676C15.516 159.884 15.86 160.16 16.132 160.504L15.376 161.26C15.128 160.972 14.868 160.748 14.596 160.588C14.324 160.428 14.024 160.348 13.696 160.348C13.232 160.348 12.868 160.448 12.604 160.648C12.34 160.848 12.208 161.14 12.208 161.524C12.208 161.804 12.28 162.032 12.424 162.208C12.576 162.376 12.772 162.52 13.012 162.64C13.26 162.76 13.524 162.872 13.804 162.976C14.092 163.072 14.38 163.18 14.668 163.3C14.964 163.42 15.232 163.572 15.472 163.756C15.712 163.94 15.904 164.18 16.048 164.476C16.2 164.764 16.276 165.128 16.276 165.568C16.276 166.304 16.024 166.88 15.52 167.296C15.016 167.712 14.336 167.92 13.48 167.92ZM13.312 169V158.272H14.104V169H13.312ZM17.4507 167.116L20.5227 163.876C20.8347 163.556 21.0787 163.28 21.2547 163.048C21.4307 162.808 21.5547 162.588 21.6267 162.388C21.7067 162.188 21.7467 161.98 21.7467 161.764C21.7467 161.34 21.6107 161.008 21.3387 160.768C21.0667 160.528 20.7147 160.408 20.2827 160.408C19.8587 160.408 19.4867 160.512 19.1667 160.72C18.8467 160.92 18.5627 161.232 18.3147 161.656L17.5227 160.996C17.8507 160.452 18.2467 160.044 18.7107 159.772C19.1747 159.492 19.7107 159.352 20.3187 159.352C20.8307 159.352 21.2747 159.452 21.6507 159.652C22.0347 159.852 22.3307 160.132 22.5387 160.492C22.7467 160.852 22.8507 161.272 22.8507 161.752C22.8507 162.096 22.8067 162.404 22.7187 162.676C22.6387 162.948 22.4907 163.228 22.2747 163.516C22.0667 163.796 21.7747 164.132 21.3987 164.524L18.9147 167.08L17.4507 167.116ZM17.4507 167.8V167.116L18.4107 166.792H23.0427V167.8H17.4507ZM27.5069 167.92C26.8829 167.92 26.3109 167.744 25.7909 167.392C25.2789 167.04 24.8709 166.544 24.5669 165.904C24.2629 165.256 24.1109 164.496 24.1109 163.624C24.1109 162.752 24.2589 161.996 24.5549 161.356C24.8589 160.716 25.2669 160.224 25.7789 159.88C26.2909 159.528 26.8549 159.352 27.4709 159.352C28.1029 159.352 28.6749 159.528 29.1869 159.88C29.6989 160.224 30.1029 160.716 30.3989 161.356C30.7029 161.996 30.8549 162.756 30.8549 163.636C30.8549 164.508 30.7029 165.268 30.3989 165.916C30.1029 166.556 29.6989 167.052 29.1869 167.404C28.6829 167.748 28.1229 167.92 27.5069 167.92ZM27.4829 166.852C27.9229 166.852 28.3069 166.732 28.6349 166.492C28.9709 166.244 29.2349 165.88 29.4269 165.4C29.6189 164.92 29.7149 164.328 29.7149 163.624C29.7149 162.92 29.6189 162.332 29.4269 161.86C29.2349 161.38 28.9709 161.02 28.6349 160.78C28.2989 160.532 27.9109 160.408 27.4709 160.408C27.0389 160.408 26.6549 160.532 26.3189 160.78C25.9829 161.02 25.7189 161.38 25.5269 161.86C25.3429 162.332 25.2509 162.92 25.2509 163.624C25.2509 164.328 25.3429 164.92 25.5269 165.4C25.7189 165.88 25.9829 166.244 26.3189 166.492C26.6549 166.732 27.0429 166.852 27.4829 166.852ZM35.3819 167.92C34.7579 167.92 34.1859 167.744 33.6659 167.392C33.1539 167.04 32.7459 166.544 32.4419 165.904C32.1379 165.256 31.9859 164.496 31.9859 163.624C31.9859 162.752 32.1339 161.996 32.4299 161.356C32.7339 160.716 33.1419 160.224 33.6539 159.88C34.1659 159.528 34.7299 159.352 35.3459 159.352C35.9779 159.352 36.5499 159.528 37.0619 159.88C37.5739 160.224 37.9779 160.716 38.2739 161.356C38.5779 161.996 38.7299 162.756 38.7299 163.636C38.7299 164.508 38.5779 165.268 38.2739 165.916C37.9779 166.556 37.5739 167.052 37.0619 167.404C36.5579 167.748 35.9979 167.92 35.3819 167.92ZM35.3579 166.852C35.7979 166.852 36.1819 166.732 36.5099 166.492C36.8459 166.244 37.1099 165.88 37.3019 165.4C37.4939 164.92 37.5899 164.328 37.5899 163.624C37.5899 162.92 37.4939 162.332 37.3019 161.86C37.1099 161.38 36.8459 161.02 36.5099 160.78C36.1739 160.532 35.7859 160.408 35.3459 160.408C34.9139 160.408 34.5299 160.532 34.1939 160.78C33.8579 161.02 33.5939 161.38 33.4019 161.86C33.2179 162.332 33.1259 162.92 33.1259 163.624C33.1259 164.328 33.2179 164.92 33.4019 165.4C33.5939 165.88 33.8579 166.244 34.1939 166.492C34.5299 166.732 34.9179 166.852 35.3579 166.852Z" fill="white" fill-opacity="0.5"/>
<line x1="46" y1="162.8" x2="492" y2="162.8" stroke="white" stroke-opacity="0.02"/>
<path d="M13.48 214.52C12.872 214.52 12.34 214.4 11.884 214.16C11.436 213.92 11.036 213.572 10.684 213.116L11.44 212.36C11.696 212.72 11.992 213.004 12.328 213.212C12.664 213.42 13.06 213.524 13.516 213.524C14.004 213.524 14.396 213.412 14.692 213.188C14.996 212.964 15.148 212.652 15.148 212.252C15.148 211.94 15.076 211.688 14.932 211.496C14.788 211.304 14.596 211.148 14.356 211.028C14.116 210.9 13.852 210.788 13.564 210.692C13.276 210.588 12.988 210.48 12.7 210.368C12.42 210.248 12.16 210.104 11.92 209.936C11.68 209.76 11.488 209.532 11.344 209.252C11.2 208.972 11.128 208.62 11.128 208.196C11.128 207.724 11.24 207.324 11.464 206.996C11.696 206.66 12.008 206.404 12.4 206.228C12.792 206.044 13.232 205.952 13.72 205.952C14.224 205.952 14.684 206.06 15.1 206.276C15.516 206.484 15.86 206.76 16.132 207.104L15.376 207.86C15.128 207.572 14.868 207.348 14.596 207.188C14.324 207.028 14.024 206.948 13.696 206.948C13.232 206.948 12.868 207.048 12.604 207.248C12.34 207.448 12.208 207.74 12.208 208.124C12.208 208.404 12.28 208.632 12.424 208.808C12.576 208.976 12.772 209.12 13.012 209.24C13.26 209.36 13.524 209.472 13.804 209.576C14.092 209.672 14.38 209.78 14.668 209.9C14.964 210.02 15.232 210.172 15.472 210.356C15.712 210.54 15.904 210.78 16.048 211.076C16.2 211.364 16.276 211.728 16.276 212.168C16.276 212.904 16.024 213.48 15.52 213.896C15.016 214.312 14.336 214.52 13.48 214.52ZM13.312 215.6V204.872H14.104V215.6H13.312ZM19.1307 214.4V206.072H20.2467V214.4H19.1307ZM17.4267 207.08V206.072H20.1267V207.08H17.4267ZM25.1748 214.52C24.5508 214.52 23.9788 214.344 23.4588 213.992C22.9468 213.64 22.5388 213.144 22.2348 212.504C21.9308 211.856 21.7788 211.096 21.7788 210.224C21.7788 209.352 21.9268 208.596 22.2228 207.956C22.5268 207.316 22.9348 206.824 23.4468 206.48C23.9588 206.128 24.5228 205.952 25.1388 205.952C25.7708 205.952 26.3428 206.128 26.8548 206.48C27.3668 206.824 27.7708 207.316 28.0668 207.956C28.3708 208.596 28.5228 209.356 28.5228 210.236C28.5228 211.108 28.3708 211.868 28.0668 212.516C27.7708 213.156 27.3668 213.652 26.8548 214.004C26.3508 214.348 25.7908 214.52 25.1748 214.52ZM25.1508 213.452C25.5908 213.452 25.9748 213.332 26.3028 213.092C26.6388 212.844 26.9028 212.48 27.0948 212C27.2868 211.52 27.3828 210.928 27.3828 210.224C27.3828 209.52 27.2868 208.932 27.0948 208.46C26.9028 207.98 26.6388 207.62 26.3028 207.38C25.9668 207.132 25.5788 207.008 25.1388 207.008C24.7068 207.008 24.3228 207.132 23.9868 207.38C23.6508 207.62 23.3868 207.98 23.1948 208.46C23.0108 208.932 22.9188 209.52 22.9188 210.224C22.9188 210.928 23.0108 211.52 23.1948 212C23.3868 212.48 23.6508 212.844 23.9868 213.092C24.3228 213.332 24.7108 213.452 25.1508 213.452ZM33.0498 214.52C32.4258 214.52 31.8538 214.344 31.3338 213.992C30.8218 213.64 30.4138 213.144 30.1098 212.504C29.8058 211.856 29.6538 211.096 29.6538 210.224C29.6538 209.352 29.8018 208.596 30.0978 207.956C30.4018 207.316 30.8098 206.824 31.3218 206.48C31.8338 206.128 32.3978 205.952 33.0138 205.952C33.6458 205.952 34.2178 206.128 34.7298 206.48C35.2418 206.824 35.6458 207.316 35.9418 207.956C36.2458 208.596 36.3978 209.356 36.3978 210.236C36.3978 211.108 36.2458 211.868 35.9418 212.516C35.6458 213.156 35.2418 213.652 34.7298 214.004C34.2258 214.348 33.6658 214.52 33.0498 214.52ZM33.0258 213.452C33.4658 213.452 33.8498 213.332 34.1778 213.092C34.5138 212.844 34.7778 212.48 34.9698 212C35.1618 211.52 35.2578 210.928 35.2578 210.224C35.2578 209.52 35.1618 208.932 34.9698 208.46C34.7778 207.98 34.5138 207.62 34.1778 207.38C33.8418 207.132 33.4538 207.008 33.0138 207.008C32.5818 207.008 32.1978 207.132 31.8618 207.38C31.5258 207.62 31.2618 207.98 31.0698 208.46C30.8858 208.932 30.7938 209.52 30.7938 210.224C30.7938 210.928 30.8858 211.52 31.0698 212C31.2618 212.48 31.5258 212.844 31.8618 213.092C32.1978 213.332 32.5858 213.452 33.0258 213.452Z" fill="white" fill-opacity="0.5"/>
<line x1="43" y1="209.4" x2="492" y2="209.4" stroke="white" stroke-opacity="0.02"/>
<path d="M13.48 261.12C12.872 261.12 12.34 261 11.884 260.76C11.436 260.52 11.036 260.172 10.684 259.716L11.44 258.96C11.696 259.32 11.992 259.604 12.328 259.812C12.664 260.02 13.06 260.124 13.516 260.124C14.004 260.124 14.396 260.012 14.692 259.788C14.996 259.564 15.148 259.252 15.148 258.852C15.148 258.54 15.076 258.288 14.932 258.096C14.788 257.904 14.596 257.748 14.356 257.628C14.116 257.5 13.852 257.388 13.564 257.292C13.276 257.188 12.988 257.08 12.7 256.968C12.42 256.848 12.16 256.704 11.92 256.536C11.68 256.36 11.488 256.132 11.344 255.852C11.2 255.572 11.128 255.22 11.128 254.796C11.128 254.324 11.24 253.924 11.464 253.596C11.696 253.26 12.008 253.004 12.4 252.828C12.792 252.644 13.232 252.552 13.72 252.552C14.224 252.552 14.684 252.66 15.1 252.876C15.516 253.084 15.86 253.36 16.132 253.704L15.376 254.46C15.128 254.172 14.868 253.948 14.596 253.788C14.324 253.628 14.024 253.548 13.696 253.548C13.232 253.548 12.868 253.648 12.604 253.848C12.34 254.048 12.208 254.34 12.208 254.724C12.208 255.004 12.28 255.232 12.424 255.408C12.576 255.576 12.772 255.72 13.012 255.84C13.26 255.96 13.524 256.072 13.804 256.176C14.092 256.272 14.38 256.38 14.668 256.5C14.964 256.62 15.232 256.772 15.472 256.956C15.712 257.14 15.904 257.38 16.048 257.676C16.2 257.964 16.276 258.328 16.276 258.768C16.276 259.504 16.024 260.08 15.52 260.496C15.016 260.912 14.336 261.12 13.48 261.12ZM13.312 262.2V251.472H14.104V262.2H13.312ZM21.0147 261.12C20.3907 261.12 19.8187 260.944 19.2987 260.592C18.7867 260.24 18.3787 259.744 18.0747 259.104C17.7707 258.456 17.6187 257.696 17.6187 256.824C17.6187 255.952 17.7667 255.196 18.0627 254.556C18.3667 253.916 18.7747 253.424 19.2867 253.08C19.7987 252.728 20.3627 252.552 20.9787 252.552C21.6107 252.552 22.1827 252.728 22.6947 253.08C23.2067 253.424 23.6107 253.916 23.9067 254.556C24.2107 255.196 24.3627 255.956 24.3627 256.836C24.3627 257.708 24.2107 258.468 23.9067 259.116C23.6107 259.756 23.2067 260.252 22.6947 260.604C22.1907 260.948 21.6307 261.12 21.0147 261.12ZM20.9907 260.052C21.4307 260.052 21.8147 259.932 22.1427 259.692C22.4787 259.444 22.7427 259.08 22.9347 258.6C23.1267 258.12 23.2227 257.528 23.2227 256.824C23.2227 256.12 23.1267 255.532 22.9347 255.06C22.7427 254.58 22.4787 254.22 22.1427 253.98C21.8067 253.732 21.4187 253.608 20.9787 253.608C20.5467 253.608 20.1627 253.732 19.8267 253.98C19.4907 254.22 19.2267 254.58 19.0347 255.06C18.8507 255.532 18.7587 256.12 18.7587 256.824C18.7587 257.528 18.8507 258.12 19.0347 258.6C19.2267 259.08 19.4907 259.444 19.8267 259.692C20.1627 259.932 20.5507 260.052 20.9907 260.052Z" fill="white" fill-opacity="0.5"/>
<line x1="45" y1="256" x2="492" y2="256" stroke="white" stroke-opacity="0.02"/>
<path d="M45 261C44.4477 261 44 261.448 44 262C44 262.552 44.4477 263 45 263V261ZM492 262L482 256.226V267.774L492 262ZM45 263H483V261H45V263Z" fill="#3C83F6"/>
<path d="M44.5422 261.111C44.0512 261.364 43.8581 261.967 44.111 262.458C44.3638 262.949 44.9668 263.142 45.4578 262.889L44.5422 261.111ZM490 16L478.469 16.6059L484.759 26.2892L490 16ZM397.823 75.8789L397.278 75.0403L397.823 75.8789ZM219.865 141.049L219.304 140.222L219.865 141.049ZM179.135 171.632L179.818 172.362L179.135 171.632ZM203.373 152.254L202.811 151.427L203.373 152.254ZM45.4578 262.889L104.216 232.63L103.3 230.852L44.5422 261.111L45.4578 262.889ZM149.507 200.718L179.818 172.362L178.452 170.902L148.14 199.257L149.507 200.718ZM203.935 153.081L220.427 141.877L219.304 140.222L202.811 151.427L203.935 153.081ZM299.246 110.239L322.216 106.375L321.884 104.403L298.914 108.267L299.246 110.239ZM398.368 76.7175L482.997 21.7414L481.908 20.0642L397.278 75.0403L398.368 76.7175ZM322.216 106.375C349.363 101.808 375.282 91.7137 398.368 76.7175L397.278 75.0403C374.423 89.8873 348.761 99.8813 321.884 104.403L322.216 106.375ZM220.427 141.877C244.117 125.782 271.002 114.99 299.246 110.239L298.914 108.267C270.387 113.066 243.232 123.966 219.304 140.222L220.427 141.877ZM179.818 172.362C187.345 165.32 195.409 158.874 203.935 153.081L202.811 151.427C194.199 157.278 186.055 163.789 178.452 170.902L179.818 172.362ZM104.216 232.63C120.713 224.135 135.955 213.395 149.507 200.718L148.14 199.257C134.724 211.808 119.634 222.441 103.3 230.852L104.216 232.63Z" fill="#A5A5A5"/>
</g>
<defs>
<clipPath id="clip0_100_8">
<rect width="502" height="280" fill="white"/>
</clipPath>
</defs>
</svg>
